<svg xmlns="http://www.w3.org/2000/svg" viewBox="0 0 56.69 752.06"><g id="Слой_2" data-name="Слой 2"><g id="Слой_1-2" data-name="Слой 1"><path d="M22.92,734.18a17.94,17.94,0,0,1,1.25-7,13.62,13.62,0,0,1,3.4-4.94,14.62,14.62,0,0,1,5.06-3,19.91,19.91,0,0,1,12.46,0,15,15,0,0,1,5.13,3,13.45,13.45,0,0,1,3.42,5,18.21,18.21,0,0,1,1.23,6.94l0,17.83L.82,752l.05-29.56H4.26l0,25.93,18.68,0Zm28.37,14.24c0-2.31,0-4.68.05-7.09s0-4.79,0-7.1a13.81,13.81,0,0,0-1-5.33,10.29,10.29,0,0,0-2.66-3.82,11.91,11.91,0,0,0-3.93-2.33,14.16,14.16,0,0,0-4.86-.81,15.3,15.3,0,0,0-5,.76A11.1,11.1,0,0,0,30,725a10.66,10.66,0,0,0-2.67,3.81,13.75,13.75,0,0,0-1,5.36l0,14.2Z"/><path d="M27.9,665.51a37.48,37.48,0,0,1,11.72,1.72,25.43,25.43,0,0,1,8.75,4.8,20.63,20.63,0,0,1,5.47,7.37,23.19,23.19,0,0,1,1.87,9.46,22.32,22.32,0,0,1-1.9,9.18,20.85,20.85,0,0,1-5.45,7.32,25.91,25.91,0,0,1-8.77,4.85A36.26,36.26,0,0,1,27.82,712,36.1,36.1,0,0,1,16,710.17a25.68,25.68,0,0,1-8.71-4.92,21.09,21.09,0,0,1-5.42-7.37A22,22,0,0,1,0,688.77a22.5,22.5,0,0,1,1.91-9.26,21.14,21.14,0,0,1,5.45-7.36,25.45,25.45,0,0,1,8.73-4.88A36.12,36.12,0,0,1,27.9,665.51Zm-.08,42.83a33.3,33.3,0,0,0,10.23-1.45,22.53,22.53,0,0,0,7.65-4.08,17.92,17.92,0,0,0,4.79-6.16,18.16,18.16,0,0,0,1.67-7.8A19.4,19.4,0,0,0,50.6,681a17.19,17.19,0,0,0-4.66-6.26,22.12,22.12,0,0,0-7.64-4.1,33.8,33.8,0,0,0-10.41-1.48,33.89,33.89,0,0,0-10.3,1.41,21.87,21.87,0,0,0-7.65,4,17.35,17.35,0,0,0-4.76,6.2,19,19,0,0,0-1.63,7.91,17.87,17.87,0,0,0,6.5,14,22.54,22.54,0,0,0,7.63,4.1A32.65,32.65,0,0,0,27.82,708.34Z"/><path d="M54.45,660.77.31,641.08v-1.7l54.21-19.51h.54v3.63L7.26,640.32,55,657.14v3.63Z"/><path d="M20.38,593.89a17.26,17.26,0,0,1,1.16-6.4,13.73,13.73,0,0,1,3.37-5,15.37,15.37,0,0,1,5.37-3.24,21.1,21.1,0,0,1,7.25-1.14,21.26,21.26,0,0,1,7.26,1.17,16.5,16.5,0,0,1,5.55,3.25,13.89,13.89,0,0,1,3.54,5A16.24,16.24,0,0,1,55.1,594l0,17.44-54-.1v-3.54l19.29,0Zm31.33.05a13.71,13.71,0,0,0-.84-4.86,10.38,10.38,0,0,0-2.62-3.9,12.66,12.66,0,0,0-4.43-2.63,18.3,18.3,0,0,0-6.29-1,18,18,0,0,0-6.22.95A12.24,12.24,0,0,0,27,585.14,10,10,0,0,0,24.55,589a15,15,0,0,0-.78,4.86l0,13.89,27.93.05Z"/><path d="M51.52,565.54l0-21.52-50.39-.09V540.3l50.38.09,0-21.84-50.39-.08v-3.71l54,.09-.09,54.4-54-.09v-3.7Z"/><path d="M25.63,498.37l0-22.15h3.39l0,22.14,22.68,0,0-23.38H55.3l0,26.85-54-.09.05-26.55H4.68l0,23.07Z"/><path d="M34,422.3a37.32,37.32,0,0,1,1.5,5.9,27.63,27.63,0,0,1,.34,5.14,22.88,22.88,0,0,1-1.21,7.17,12.09,12.09,0,0,1-3.79,5.36,18.2,18.2,0,0,1-7,3.34A42.66,42.66,0,0,1,13,450.35l-11.58,0v-3.7l11.57,0a43.73,43.73,0,0,0,9.57-.87,15.14,15.14,0,0,0,5.95-2.58,9.22,9.22,0,0,0,3.06-4.2,17,17,0,0,0,.89-5.67,38.47,38.47,0,0,0-.34-5.09,31.62,31.62,0,0,0-1.41-5.95l-29.25-.05v-3.62l53.94.09v3.62Z"/><path d="M25.79,402.22l0-22.14h3.39l0,22.15,22.68,0,0-23.38h3.55l0,26.85-54-.09.05-26.54H4.84l0,23.07Z"/><path d="M55.55,327v3.47l-44.37-.08,28.53,16.8v.69L11.12,364.7l44.37.07v3.47l-54.09-.09v-1.54l32.44-19L1.45,328.49V327Z"/><path d="M55.67,255.66v3.47l-44.37-.07,28.53,16.79v.69L11.24,293.32l44.37.07v3.48l-54.09-.09v-1.55l32.44-19L1.57,257.11v-1.54Z"/><path d="M55.68,247.94h-.46L1.55,226.32V224.7l53.74-21.2h.47v3.78l-15.6,6.07,0,24.61,15.58,6.13ZM8,225.56l28.76,11.16,0-22.14Z"/><path d="M55.78,191.92v3.71l-54-.09L1.8,169.3H5.19l0,22.53Z"/><path d="M55.81,173.63h-.47L1.67,152v-1.62l53.74-21.2h.46V133L40.28,139l0,24.61,15.57,6.13ZM8.08,151.25l28.76,11.16,0-22.14Z"/><path d="M14,124.33a14,14,0,0,1-6.06-1.2,10.85,10.85,0,0,1-4-3.25,14,14,0,0,1-2.27-4.64,19.1,19.1,0,0,1-.72-5.36,16.24,16.24,0,0,1,.93-5.52,13.13,13.13,0,0,1,2.71-4.51,12.9,12.9,0,0,1,4.36-3,14.93,14.93,0,0,1,6-1.1,12.2,12.2,0,0,1,4.05.66,12.36,12.36,0,0,1,6,4.37,10.88,10.88,0,0,1,1.61,3.09A14.53,14.53,0,0,1,41.05,93.36a17.81,17.81,0,0,1,7.06,1.28A12.81,12.81,0,0,1,53,98.16a14.69,14.69,0,0,1,2.81,5.29,22.63,22.63,0,0,1,.92,6.52,18.24,18.24,0,0,1-1.06,6.21,13.85,13.85,0,0,1-3.09,5,14.42,14.42,0,0,1-5.14,3.35,19.07,19.07,0,0,1-7.1,1.23v-3.32a14.76,14.76,0,0,0,5.67-1A11.67,11.67,0,0,0,50,118.76a11.52,11.52,0,0,0,2.47-4,13.59,13.59,0,0,0,.86-4.82,22.18,22.18,0,0,0-.57-5.21,10.51,10.51,0,0,0-2-4.09A9,9,0,0,0,47,98a16.78,16.78,0,0,0-6.13-1,13.07,13.07,0,0,0-5.44,1.07,11.58,11.58,0,0,0-3.94,2.89,12.41,12.41,0,0,0-2.4,4.16,14.5,14.5,0,0,0-.82,4.83v4H25V110a12.91,12.91,0,0,0-.61-3.94,10.38,10.38,0,0,0-1.89-3.47,9.84,9.84,0,0,0-3.16-2.52,9.64,9.64,0,0,0-4.43-1,12.26,12.26,0,0,0-4.9.88,9.08,9.08,0,0,0-3.36,2.39,9.55,9.55,0,0,0-1.94,3.47,13.48,13.48,0,0,0-.62,4,18.33,18.33,0,0,0,.41,4,9.76,9.76,0,0,0,1.54,3.55,8.1,8.1,0,0,0,3,2.55,10.8,10.8,0,0,0,4.9,1Z"/><path d="M1.87,83.26V79.63l25.85.05L47.17,80,1.92,48.77V47.38L56,47.47V51.1l-27.16-.05-18.29-.34L56,82.12v1.23Z"/><path d="M29.35,30.83l26.7.05v3.63L2,34.42V30.79l23.85,0,0-27.09L2.08,3.7V0l54,.09v3.7l-26.7,0Z"/></g></g></svg>