<svg xmlns="http://www.w3.org/2000/svg" viewBox="0 0 1327 639.83"><defs><style>.cls-1{fill:#13100d;}</style></defs><g id="Слой_2" data-name="Слой 2"><g id="Слой_1-2" data-name="Слой 1"><rect class="cls-1" x="0.52" y="3.36" width="69.62" height="442.99"/><path class="cls-1" d="M281.52,199.54c27.21,0,54.42-.63,70.24-10.76,22.15-13.29,31-59.49,41.14-105C406.19,26.77,436.56-13.1,516.3,4V56.52c-35.44-3.17-49.36,3.16-59.49,48.73-10.75,48.09-23.41,91.13-48.1,118.34L529,435.59v10.76H451.75L348,254.6c-15.81,7-48.73,7-66.44,7V446.35H211.9V3.36h69.62Z"/><path class="cls-1" d="M835.9,446.35,749.83,292.57H673.26V446.35H602.38V3.36h155c83.54,0,134.17,65.18,134.17,144.28,0,61.39-28.48,110.76-74.68,131l91.77,156.94v10.76ZM756.79,229.91c38,0,67.09-33.53,67.09-81.63,0-46.2-28.48-81-67.09-81H672V229.91Z"/><path class="cls-1" d="M947.92,446.35v-7.59L1122,.19h32.28L1327,438.12v8.23h-69l-34.17-91.76H1051.08l-33.54,91.76ZM1201.7,292.57l-26-67.08-38-112-38.6,113.29-25.32,65.81Z"/><path class="cls-1" d="M32.89,520.62c-1.64-6.14-5.64-7.88-10.15-7.88-6,0-12,4.81-12,15.88,0,11.58,6.25,16.39,12,16.39,4.41,0,8.71-2.66,10.25-9.22H43c-1.94,13.12-11,18.65-20.49,18.65-11.07,0-22.13-7.38-22.13-25.82C.41,511,11.68,503,22.64,503c9.22,0,18.55,4.82,20.19,17.62Z"/><path class="cls-1" d="M74.59,554.44c-13.32,0-22.13-10.35-22.13-25.92,0-15.27,8.81-25.52,22.13-25.52s22.24,10.25,22.24,25.52C96.83,544.09,88,554.44,74.59,554.44Zm0-9.53c7.38,0,12.09-6.56,12.09-16.39s-4.71-16-12.09-16-12,6.25-12,16S67.32,544.91,74.59,544.91Z"/><path class="cls-1" d="M140.07,524.42c0-7.79-3.39-12.5-9.12-12.5-6.15,0-9.94,5.33-9.94,13.42v28.07H110.45v-35c0-5.84-.2-7.28-4.3-7v-7.48c5.84-1.43,14-1.94,14,6.46,3.18-5.74,8.71-7.38,13.93-7.38,12.3,0,16.6,9.22,16.6,21.42v29H140.07Z"/><path class="cls-1" d="M195.19,520.62c-1.64-6.14-5.63-7.88-10.14-7.88-6.05,0-12,4.81-12,15.88,0,11.58,6.25,16.39,12,16.39,4.4,0,8.71-2.66,10.24-9.22h10.05c-2,13.12-11,18.65-20.5,18.65-11.06,0-22.13-7.38-22.13-25.82C162.71,511,174,503,185,503c9.22,0,18.54,4.82,20.18,17.62Z"/><path class="cls-1" d="M255.24,530.77H225c.31,9.12,5.33,14.34,13.22,14.34,4.81,0,10.55-.71,15.06-3.17l1.33,8.3a37.9,37.9,0,0,1-16.49,4.2c-14,.31-23.57-9.94-23.26-26.74,0-16.5,10.65-24.7,21.82-24.7C251.65,503,258.21,514.37,255.24,530.77Zm-30.13-7.89h21.62c.31-7.48-4.71-11.27-10-11.27S225.93,514.89,225.11,522.88Z"/><path class="cls-1" d="M292,503c12.4,0,19,9.74,19,25.41,0,16.91-9,26-19.68,26A18.45,18.45,0,0,1,280,550.75v28.07H269.48V520.11c0-5.74.41-8.3-4.2-8.3l-.1-7.89c6.45-1.63,12.9-1.23,12.9,7.48C281.26,506.07,286.28,503,292,503Zm-12.19,37.71c3,2.77,6.86,4.3,9.84,4,6-.3,10.65-4.91,10.65-16.29,0-9.53-3.48-15.47-10.45-15.47-6.15,0-10,5.74-10,13.42Z"/><path class="cls-1" d="M350.94,512.43H336.7V534c0,8.19,3.38,11.47,8.19,11.47a16.5,16.5,0,0,0,6.46-1.64l1,8.61a31.94,31.94,0,0,1-10.45,2.05c-9.53,0-15.57-5.94-15.57-20.29V512.43l-8.3-.72v-7.58h8.61l1.12-15.27h8.92v15.27h14.24Z"/><path class="cls-1" d="M10.55,624.05c.31,5.12,4.41,7.47,8.71,7.47s8.51-1,8.81-7.17c-.3-5.43-5-5.43-9.22-6.55-8.3-1.34-17.72-4.41-17.72-14.25,0-10.65,8.91-15.16,18.44-15.16,10.35,0,17.83,5,17.52,14.86H27.46c0-4.92-4.31-6.46-8.4-6.46s-8.1,1.84-7.79,6.35c0,4.1,3.38,5.43,8.4,6.25,9.12,1.34,18.55,3.49,18.55,15.17,0,11.06-9.12,15.26-19.16,15.26C9.73,639.82.51,636.34,0,624.05Z"/><path class="cls-1" d="M78.38,597.82H64.14v21.51c0,8.2,3.38,11.48,8.2,11.48a16.64,16.64,0,0,0,6.45-1.64l1,8.61a32,32,0,0,1-10.46,2c-9.52,0-15.57-5.94-15.57-20.28V597.82l-8.3-.72v-7.58H54.1l1.13-15.27h8.91v15.27H78.38Z"/><path class="cls-1" d="M109.84,639.82c-13.32,0-22.13-10.34-22.13-25.92,0-15.27,8.81-25.51,22.13-25.51s22.23,10.24,22.23,25.51C132.07,629.48,123.26,639.82,109.84,639.82Zm0-9.53c7.37,0,12.09-6.55,12.09-16.39s-4.72-16-12.09-16-12,6.25-12,16S102.57,630.29,109.84,630.29Z"/><path class="cls-1" d="M167.73,588.39a14.79,14.79,0,0,1,10.35,4.41l-3.38,8.7a13.49,13.49,0,0,0-8.2-3c-5.63,0-10.35,4.2-10.35,12.3v28H145.7V603.55c0-4.4-.1-6.66-4.3-6.35l-.1-7.58c6.14-1.64,14.34-.92,14.34,6.56C158,590.44,162.51,588.39,167.73,588.39Z"/><path class="cls-1" d="M224.29,616.16H194.07c.3,9.11,5.32,14.34,13.22,14.34,4.81,0,10.55-.72,15.06-3.18l1.33,8.3a37.77,37.77,0,0,1-16.5,4.2c-14,.31-23.56-9.94-23.26-26.74,0-16.49,10.66-24.69,21.83-24.69C220.71,588.39,227.27,599.76,224.29,616.16Zm-30.12-7.89h21.62c.3-7.48-4.72-11.27-10-11.27S195,600.27,194.17,608.27Z"/></g></g></svg>