<svg xmlns="http://www.w3.org/2000/svg" viewBox="0 0 189.67 561.78"><defs><style>.cls-ikra{fill:#13100d;}</style></defs><g id="Слой_2" data-name="Слой 2"><g id="Слой_1-2" data-name="Слой 1"><rect class="cls-ikra" x="0.02" y="0.16" width="187.51" height="29.47" transform="translate(-0.02 0.16) rotate(-0.1)"/><path class="cls-ikra" d="M104.67,119.08c0,11.52.31,23,4.6,29.72,5.64,9.37,25.2,13.09,44.5,17.34,24.11,5.58,41,18.41,33.84,52.18l-22.24,0c1.32-15-1.37-20.89-20.67-25.14-20.36-4.52-38.58-9.85-50.12-20.28L4.93,224H.37l0-32.68,81.09-44.07c-3-6.69-3-20.62-3-28.12L.2,119.25.15,89.79l187.51-.32.05,29.47Z"/><path class="cls-ikra" d="M.59,353.91l65-36.54L65.57,285l-65.09.11,0-30,187.51-.32.11,65.63c0,35.36-27.5,56.83-61,56.89-26,0-46.9-12-55.51-31.52l-66.36,39H.64Zm91.56-33.64c0,16.07,14.24,28.37,34.6,28.34,19.55,0,34.27-12.11,34.24-28.45l-.06-35.9-68.84.12Z"/><path class="cls-ikra" d="M.67,401.33H3.89l185.75,73.35,0,13.67L4.42,561.77H.94l0-29.2,38.82-14.53-.12-73.13L.72,430.79Zm65.27,107.3,28.38-11,47.39-16.15-48-16.26L65.85,454.52Z"/></g></g></svg>