<svg xmlns="http://www.w3.org/2000/svg" viewBox="0 0 165.3 35.14"><defs><style>.cls-1{fill:#fff;}</style></defs><g id="Слой_2" data-name="Слой 2"><g id="Слой_1-2" data-name="Слой 1"><path class="cls-1" d="M113.52,11.32A1.56,1.56,0,0,0,111.87,10c-1,0-1.94.78-1.94,2.58s1,2.65,1.94,2.65a1.69,1.69,0,0,0,1.66-1.49h1.63a3.24,3.24,0,0,1-3.32,3c-1.8,0-3.59-1.19-3.59-4.18s1.83-4.15,3.61-4.15a3.09,3.09,0,0,1,3.27,2.85Z"/><path class="cls-1" d="M120.28,16.8c-2.16,0-3.59-1.67-3.59-4.2s1.43-4.13,3.59-4.13,3.6,1.66,3.6,4.13S122.45,16.8,120.28,16.8Zm0-1.54c1.19,0,2-1.06,2-2.66s-.76-2.59-2-2.59-2,1-2,2.59S119.1,15.26,120.28,15.26Z"/><path class="cls-1" d="M130.89,11.94c0-1.27-.55-2-1.48-2s-1.61.86-1.61,2.18v4.55h-1.71V11c0-1,0-1.18-.7-1.13V8.62c1-.24,2.28-.32,2.28,1a2.39,2.39,0,0,1,2.25-1.19c2,0,2.69,1.49,2.69,3.47v4.7h-1.72Z"/><path class="cls-1" d="M139.82,11.32A1.54,1.54,0,0,0,138.18,10c-1,0-1.94.78-1.94,2.58s1,2.65,1.94,2.65a1.7,1.7,0,0,0,1.66-1.49h1.63a3.24,3.24,0,0,1-3.32,3c-1.8,0-3.59-1.19-3.59-4.18s1.82-4.15,3.6-4.15a3.08,3.08,0,0,1,3.27,2.85Z"/><path class="cls-1" d="M149.55,13h-4.89a2.09,2.09,0,0,0,2.14,2.32,5.23,5.23,0,0,0,2.44-.51l.21,1.34a6,6,0,0,1-2.67.68c-2.27.05-3.82-1.61-3.77-4.33s1.73-4,3.54-4C149,8.47,150,10.31,149.55,13Zm-4.88-1.28h3.51a1.62,1.62,0,0,0-1.63-1.83A1.84,1.84,0,0,0,144.67,11.69Z"/><path class="cls-1" d="M155.52,8.47c2,0,3.07,1.57,3.07,4.11,0,2.74-1.46,4.22-3.19,4.22a3.05,3.05,0,0,1-1.83-.59v4.55h-1.71V11.24c0-.93.07-1.35-.68-1.35V8.62c1-.27,2.09-.2,2.09,1.21A2.59,2.59,0,0,1,155.52,8.47Zm-2,6.11a2.24,2.24,0,0,0,1.59.65c1-.05,1.73-.8,1.73-2.65,0-1.54-.56-2.5-1.69-2.5s-1.63.93-1.63,2.17Z"/><path class="cls-1" d="M165.07,10h-2.31v3.49c0,1.33.55,1.86,1.33,1.86a2.67,2.67,0,0,0,1-.26l.17,1.39a5.1,5.1,0,0,1-1.7.33c-1.54,0-2.52-1-2.52-3.29V10l-1.35-.11V8.65h1.4l.18-2.48h1.45V8.65h2.31Z"/><path class="cls-1" d="M109.9,28.09a1.29,1.29,0,0,0,1.41,1.21c.69,0,1.38-.17,1.43-1.16s-.82-.88-1.5-1.07c-1.34-.21-2.87-.71-2.87-2.31s1.44-2.45,3-2.45,2.89.81,2.84,2.4h-1.56c0-.79-.7-1-1.37-1s-1.31.3-1.26,1,.55.88,1.36,1c1.48.22,3,.56,3,2.46s-1.48,2.47-3.11,2.47-3-.56-3.08-2.55Z"/><path class="cls-1" d="M120.89,23.83h-2.31v3.49c0,1.33.55,1.86,1.33,1.86a2.75,2.75,0,0,0,1-.26l.16,1.39a5,5,0,0,1-1.69.33c-1.55,0-2.53-1-2.53-3.29V23.83l-1.34-.11V22.49H117l.19-2.48h1.44v2.48h2.31Z"/><path class="cls-1" d="M126,30.64c-2.16,0-3.59-1.67-3.59-4.2s1.43-4.13,3.59-4.13,3.6,1.66,3.6,4.13S128.16,30.64,126,30.64Zm0-1.54c1.19,0,2-1.06,2-2.66s-.77-2.59-2-2.59-1.94,1-1.94,2.59S124.81,29.1,126,29.1Z"/><path class="cls-1" d="M135.37,22.31a2.38,2.38,0,0,1,1.68.71l-.55,1.41a2.19,2.19,0,0,0-1.33-.48c-.91,0-1.68.68-1.68,2v4.54H131.8V24.76c0-.71,0-1.08-.7-1V22.51c1-.27,2.32-.15,2.32,1.06A1.94,1.94,0,0,1,135.37,22.31Z"/><path class="cls-1" d="M144.54,26.81h-4.9a2.1,2.1,0,0,0,2.14,2.32,5.23,5.23,0,0,0,2.44-.51l.22,1.34a6.08,6.08,0,0,1-2.67.68c-2.28.05-3.82-1.61-3.77-4.33s1.72-4,3.53-4C144,22.31,145,24.15,144.54,26.81Zm-4.88-1.28h3.5a1.61,1.61,0,0,0-1.63-1.83A1.84,1.84,0,0,0,139.66,25.53Z"/><rect class="cls-1" y="0.26" width="5.48" height="34.87"/><path class="cls-1" d="M22.12,15.71c2.14,0,4.29-.05,5.53-.85,1.75-1,2.44-4.68,3.24-8.27C31.94,2.11,34.33-1,40.61.31V4.45c-2.79-.25-3.89.25-4.69,3.84-.84,3.78-1.84,7.17-3.78,9.31L41.6,34.29v.85H35.52L27.35,20c-1.24.55-3.83.55-5.23.55V35.14H16.64V.26h5.48Z"/><path class="cls-1" d="M65.77,35.14,59,23H53V35.14H47.38V.26H59.59c6.57,0,10.56,5.14,10.56,11.36,0,4.84-2.24,8.72-5.88,10.32L71.5,34.29v.85Zm-6.23-17c3,0,5.28-2.64,5.28-6.43,0-3.63-2.24-6.37-5.28-6.37H52.86V18.1Z"/><path class="cls-1" d="M74.58,35.14v-.6L88.29,0h2.54l13.6,34.47v.65H99l-2.69-7.22H82.71l-2.64,7.22ZM94.56,23l-2-5.28-3-8.82-3,8.92L84.5,23Z"/></g></g></svg>