<svg xmlns="http://www.w3.org/2000/svg" viewBox="0 0 39 34.82"><defs><style>.cls-1{fill:#90d7d2;}.cls-2{fill:#1b2e46;}</style></defs><g id="Слой_2" data-name="Слой 2"><g id="Слой_1-2" data-name="Слой 1"><path class="cls-1" d="M19.57,30.82C7.19,24.55.6,15.25,2.25,9.1c1-3.68,5.35-7.86,10.08-7.17a9.72,9.72,0,0,1,7.42,6.71Z"/><path class="cls-1" d="M19.43,30.77c12.38-6.26,19-15.56,17.32-21.71-1-3.68-5.35-7.86-10.08-7.17A9.72,9.72,0,0,0,19.25,8.6Z"/><path class="cls-2" d="M28.6,3a7.47,7.47,0,0,1,7.6,7.19c.26,4.43-5.07,9.82-6.82,11.59-4.2,4.27-6.9,6.6-8.86,8.3l-1,.85-1-.86c-2-1.69-4.67-4-8.89-8.24C7.9,20,2.56,14.68,2.8,10.24A7.48,7.48,0,0,1,10.43,3h.44c3.63.18,6.3,4.15,6.32,4.18l2.31,3.56,2.29-3.57s2.68-4,6.3-4.21h.51m0-3L28,0c-5.11.27-8.46,5.49-8.46,5.49S16.11.31,11,.06l-.57,0A10.36,10.36,0,0,0,0,10.06C-.28,15.47,4.66,20.86,7.74,24c6.63,6.66,9.57,8.65,11.81,10.86,2.23-2.22,5.16-4.23,11.76-10.92,3.08-3.12,8-8.53,7.68-13.92A10.36,10.36,0,0,0,28.6,0Z"/></g></g></svg>