<svg xmlns="http://www.w3.org/2000/svg" viewBox="0 0 43.47 37.34"><defs><style>.cls-1{fill:#1b2e46;}.cls-2{fill:#fcfcfc;}.cls-2,.cls-3{stroke:#1b2e46;stroke-miterlimit:10;stroke-width:2px;}.cls-3{fill:none;}</style></defs><g id="Слой_2" data-name="Слой 2"><g id="Слой_1-2" data-name="Слой 1"><path class="cls-1" d="M21.72,6.54s3.57-5.25,9-5.52A10.79,10.79,0,0,1,42.46,11c.33,5.42-4.89,10.86-8.17,14-7,6.72-10.13,8.74-12.5,11-2.38-2.21-5.51-4.21-12.55-10.9C6,22,.7,16.54,1,11.11a10.78,10.78,0,0,1,11.69-10C18.13,1.31,21.72,6.54,21.72,6.54Z"/><path class="cls-2" d="M21.72,6.54s3.57-5.25,9-5.52A10.79,10.79,0,0,1,42.46,11c.33,5.42-4.89,10.86-8.17,14-7,6.72-10.13,8.74-12.5,11-2.38-2.21-5.51-4.21-12.55-10.9C6,22,.7,16.54,1,11.11a10.78,10.78,0,0,1,11.69-10C18.13,1.31,21.72,6.54,21.72,6.54Z"/><path class="cls-3" d="M21.72,6.54s3.57-5.25,9-5.52A10.79,10.79,0,0,1,42.46,11c.33,5.42-4.89,10.86-8.17,14-7,6.72-10.13,8.74-12.5,11-2.38-2.21-5.51-4.21-12.55-10.9C6,22,.7,16.54,1,11.11a10.78,10.78,0,0,1,11.69-10C18.13,1.31,21.72,6.54,21.72,6.54Z"/></g></g></svg>